<svg width="13" height="13" viewBox="0 0 13 13" fill="none" xmlns="http://www.w3.org/2000/svg">
<g id="message-square">
<path id="Icon" d="M1.625 5.95829C1.625 5.22251 1.625 4.85462 1.6892 4.5493C1.934 3.38515 2.84353 2.47562 4.00767 2.23083C4.313 2.16663 4.68089 2.16663 5.41667 2.16663H6.575C8.25516 2.16663 9.09524 2.16663 9.73697 2.49361C10.3015 2.78123 10.7604 3.24017 11.048 3.80465C11.375 4.44639 11.375 5.28647 11.375 6.96663V8.90737V10.8333L9.884 10.0878C9.63201 9.9618 9.50601 9.8988 9.37397 9.85437C9.2567 9.81492 9.13602 9.78643 9.01349 9.76927C8.87552 9.74996 8.73465 9.74996 8.45292 9.74996H5.41667C4.68089 9.74996 4.313 9.74996 4.00767 9.68576C2.84353 9.44096 1.934 8.53143 1.6892 7.36729C1.625 7.06196 1.625 6.69407 1.625 5.95829V5.95829Z" stroke="#3288B4" stroke-linecap="round" stroke-linejoin="round"/>
</g>
</svg>
