<svg width="260" height="62" viewBox="0 0 260 62" fill="none" xmlns="http://www.w3.org/2000/svg">
<path d="M3.34766 38.75C3.34766 28.675 21.7597 7.52856 21.7597 7.52856C21.7597 7.52856 40.2833 28.675 40.2833 38.75C40.2833 48.825 32.0258 57.0179 21.8713 57.0179C11.7168 57.0179 3.34766 48.825 3.34766 38.75Z" fill="url(#paint0_linear_1_283)"/>
<path d="M39.3906 34.4321C35.7082 23.5821 21.7597 7.52856 21.7597 7.52856C21.7597 7.52856 10.7125 20.3714 5.69104 30.8893C10.2661 31 15.734 32.9929 24.4378 38.0857C33.588 43.4 38.0516 37.2 39.3906 34.4321Z" fill="url(#paint1_linear_1_283)"/>
<path d="M39.3906 34.5429C37.9399 37.3107 33.588 43.5107 24.3262 38.0857C15.7339 32.9929 10.1545 31.1107 5.57942 30.8893C4.24036 33.7679 3.34766 36.5357 3.34766 38.75C3.34766 48.825 11.6052 57.0179 21.7597 57.0179C31.9142 57.0179 40.2833 48.825 40.2833 38.75C40.2833 37.5321 39.9485 36.0929 39.3906 34.5429Z" fill="url(#paint2_linear_1_283)"/>
<path d="M16.5151 33.4357C17.2962 33.5464 17.9657 33.7679 18.6353 34.1C18.7468 34.1 18.7468 34.1 18.8584 34.2107C19.7511 34.4321 20.6438 34.5429 21.5365 34.6536C23.4335 34.9857 25.1074 35.4286 26.8928 36.2036C27.1159 36.2036 27.4507 36.3143 27.6739 36.3143C28.5666 34.6536 29.1245 33.1036 29.1245 31.9964C29.0129 28.1214 25.7769 25.0214 21.8713 25.1321C17.9657 25.2429 14.8413 28.4536 14.9528 32.3286C14.9528 32.55 14.9529 32.7714 15.0644 32.9929C15.5108 33.1036 16.0687 33.2143 16.5151 33.4357Z" fill="white"/>
<path d="M13.8369 32.7714C16.8498 33.8786 20.309 35.65 24.5494 38.0857C33.6996 43.4 39.3906 38.5286 39.5022 34.5428C36.3777 27.3464 24.103 34.2107 13.8369 32.7714Z" fill="url(#paint3_linear_1_283)"/>
<path opacity="0.11" d="M22.2061 25.1321C18.3005 25.1321 15.0645 28.2321 15.0645 32.1071C15.0645 32.4393 15.0645 32.8821 15.176 33.2143C17.9657 34.3214 21.0902 35.9821 24.8842 38.1964C24.9958 38.3071 25.1074 38.3071 25.219 38.4179C27.5623 37.3107 29.2361 34.875 29.2361 32.2179C29.2361 28.2321 26.1117 25.1321 22.2061 25.1321Z" fill="white"/>
<path opacity="0.11" d="M22.3176 20.8143C16.0687 20.8143 11.0472 25.6857 11.0472 31.775C14.6181 32.7714 18.97 34.7643 24.661 38.0857C26.558 39.1928 28.1202 39.7464 29.6824 40.0786C32.0258 38.0857 33.588 35.0964 33.588 31.8857C33.588 25.6857 28.5666 20.8143 22.3176 20.8143Z" fill="white"/>
<path opacity="0.11" d="M29.1245 16.9393C26.8928 15.9429 24.5494 15.3893 21.9829 15.3893C19.1932 15.3893 16.5151 16.0536 14.1717 17.1607C11.1589 21.3679 7.81121 26.35 5.69104 30.8893C10.2661 31 15.734 32.9929 24.4378 38.0857C32.5837 42.8464 39.6138 38.75 39.3906 34.4321C37.4936 28.675 32.9185 22.0321 29.1245 16.9393Z" fill="white"/>
<path opacity="0.11" d="M12.6094 51.7036C13.6571 51.7036 14.5064 50.8609 14.5064 49.8214C14.5064 48.7819 13.6571 47.9393 12.6094 47.9393C11.5617 47.9393 10.7124 48.7819 10.7124 49.8214C10.7124 50.8609 11.5617 51.7036 12.6094 51.7036Z" fill="white"/>
<path opacity="0.11" d="M9.81978 37.0893C10.1279 37.0893 10.3777 36.8414 10.3777 36.5357C10.3777 36.23 10.1279 35.9821 9.81978 35.9821C9.51164 35.9821 9.26184 36.23 9.26184 36.5357C9.26184 36.8414 9.51164 37.0893 9.81978 37.0893Z" fill="white"/>
<path opacity="0.11" d="M15.8455 41.5179C16.4001 41.5179 16.8498 41.0717 16.8498 40.5214C16.8498 39.9711 16.4001 39.525 15.8455 39.525C15.2908 39.525 14.8412 39.9711 14.8412 40.5214C14.8412 41.0717 15.2908 41.5179 15.8455 41.5179Z" fill="white"/>
<path d="M127.099 43.5107H125.648V32.4393H121.742V31.2214H131.004V32.4393H127.099V43.5107Z" fill="#1D1D1B"/>
<path d="M141.94 43.5107H135.021V31.2214H141.94V32.4393H136.472V36.425H141.605V37.6429H136.472V42.1821H141.94V43.5107Z" fill="#1D1D1B"/>
<path d="M154.996 43.5107H153.322L149.974 38.0857L146.627 43.5107H145.064L149.193 37.0893L145.399 31.2214H146.961L150.086 36.0929L153.21 31.2214H154.772L150.978 37.0893L154.996 43.5107Z" fill="#1D1D1B"/>
<path d="M168.275 43.5107H166.824V37.7536H160.24V43.5107H158.79V31.2214H160.24V36.425H166.824V31.2214H168.275V43.5107Z" fill="#1D1D1B"/>
<path d="M184.566 37.3107C184.566 39.3036 184.008 40.8536 183.116 41.9607C182.111 43.0679 180.661 43.6214 178.875 43.6214C177.09 43.6214 175.639 43.0679 174.635 41.9607C173.631 40.8536 173.184 39.3036 173.184 37.3107C173.184 35.3179 173.631 33.7679 174.635 32.6607C175.639 31.5536 177.09 31 178.875 31C180.661 31 182 31.5536 183.004 32.6607C184.12 33.7679 184.566 35.3179 184.566 37.3107ZM174.635 37.3107C174.635 38.9714 174.97 40.1893 175.751 41.075C176.421 41.9607 177.536 42.4036 178.875 42.4036C180.214 42.4036 181.33 41.9607 182 41.075C182.669 40.1893 183.004 38.9714 183.004 37.3107C183.004 35.65 182.669 34.4321 182 33.5464C181.33 32.6607 180.214 32.2179 178.875 32.2179C177.536 32.2179 176.421 32.6607 175.751 33.5464C175.081 34.4321 174.635 35.65 174.635 37.3107Z" fill="#1D1D1B"/>
<path d="M198.292 43.5107H196.841V32.4393H192.824L192.601 34.4321C192.266 37.0893 191.931 39.0821 191.708 40.3C191.485 41.5179 191.15 42.4036 190.704 42.8464C190.257 43.2893 189.699 43.6214 189.03 43.5107C188.584 43.5107 188.249 43.4 187.914 43.2893V42.0714C188.249 42.1821 188.584 42.2929 188.918 42.2929C189.253 42.2929 189.476 42.1821 189.699 41.9607C189.923 41.7393 190.146 41.2964 190.257 40.7429C190.481 40.1893 190.592 38.9714 190.927 37.3107C191.15 35.65 191.485 33.5464 191.82 31.1107H198.515V43.5107H198.292Z" fill="#1D1D1B"/>
<path d="M214.472 37.3107C214.472 39.3036 214.026 40.8536 213.021 41.9607C212.017 43.0679 210.678 43.6214 208.781 43.6214C206.996 43.6214 205.545 43.0679 204.541 41.9607C203.536 40.8536 203.09 39.3036 203.09 37.3107C203.09 35.3179 203.536 33.7679 204.541 32.6607C205.545 31.5536 206.996 31 208.781 31C210.566 31 211.906 31.5536 212.91 32.6607C214.026 33.7679 214.472 35.3179 214.472 37.3107ZM204.652 37.3107C204.652 38.9714 204.987 40.1893 205.768 41.075C206.438 41.9607 207.554 42.4036 208.893 42.4036C210.232 42.4036 211.348 41.9607 212.017 41.075C212.687 40.1893 213.021 38.9714 213.021 37.3107C213.021 35.65 212.687 34.4321 212.017 33.5464C211.348 32.6607 210.232 32.2179 208.893 32.2179C207.554 32.2179 206.438 32.6607 205.768 33.5464C204.987 34.4321 204.652 35.65 204.652 37.3107Z" fill="#1D1D1B"/>
<path d="M226.3 31.2214V32.55H220.833V43.6214H219.382V31.2214H226.3Z" fill="#1D1D1B"/>
<path d="M230.541 31.2214H231.88V38.0857C231.88 39.3036 231.88 40.5214 231.768 41.5179H231.88L238.798 31.2214H240.361V43.5107H239.021V36.7571C239.021 35.65 239.021 34.4321 239.133 33.2143H239.021L232.103 43.5107H230.541V31.2214Z" fill="#1D1D1B"/>
<path d="M245.828 31.2214H247.167V38.0857C247.167 39.3036 247.167 40.5214 247.056 41.5179H247.167L254.086 31.2214H255.648V43.5107H254.309V36.7571C254.309 35.65 254.309 34.4321 254.421 33.2143L247.502 43.5107H245.94V31.2214H245.828Z" fill="#1D1D1B"/>
<path d="M47.8712 44.5071V25.4643C47.8712 23.5821 49.2103 22.1429 51.1073 22.1429C53.0043 22.1429 54.3433 23.5821 54.3433 25.4643V31.6643H63.4935V25.4643C63.4935 23.5821 64.8326 22.1429 66.7296 22.1429C68.6266 22.1429 69.9656 23.4714 69.9656 25.4643V44.6179C69.9656 46.5 68.515 47.9393 66.7296 47.9393C64.8326 47.9393 63.4935 46.5 63.4935 44.6179V37.5321H54.3433V44.6179C54.3433 46.5 52.8927 47.9393 51.1073 47.9393C49.2103 47.8286 47.8712 46.3893 47.8712 44.5071Z" fill="url(#paint4_linear_1_283)"/>
<path d="M83.4678 52.3678C83.4678 53.3643 82.6867 54.1393 81.5708 54.1393H73.9828C72.8669 54.1393 72.0858 53.2536 72.0858 52.2571C72.0858 51.7036 72.4206 51.15 72.9785 50.7071L77.1073 47.3857C78.6695 46.1678 79.1159 45.5036 79.1159 44.5071C79.1159 43.5107 78.5579 42.8464 77.5536 42.8464C76.8841 42.8464 76.4378 43.1786 76.2146 43.9536C76.103 44.175 76.103 44.3964 75.9914 44.7286C75.7682 45.725 75.0987 46.2786 74.0944 46.2786C72.9785 46.2786 72.1974 45.3928 72.1974 44.2857C72.1974 43.9536 72.309 43.5107 72.4206 43.0679C73.0901 40.9643 75.2103 39.525 77.7768 39.525C80.7897 39.525 83.0214 41.5178 83.0214 44.3964C83.0214 46.2786 82.0171 47.7178 79.2274 49.9321L78.2232 50.7071H81.5708C82.6867 50.4857 83.4678 51.2607 83.4678 52.3678Z" fill="url(#paint5_linear_1_283)"/>
<path d="M110.807 34.9857C110.807 42.1821 104.893 47.8286 97.3046 47.8286C89.7167 47.8286 83.8025 42.1821 83.8025 34.9857C83.8025 27.7893 89.7167 22.1429 97.3046 22.1429C104.893 22.1429 110.807 27.7893 110.807 34.9857ZM90.4978 34.9857C90.4978 39.0821 93.1759 41.9607 97.3046 41.9607C101.322 41.9607 104.112 39.0821 104.112 34.9857C104.112 31 101.322 28.0107 97.3046 28.0107C93.2875 28.0107 90.4978 30.8893 90.4978 34.9857Z" fill="url(#paint6_linear_1_283)"/>
<path d="M123.193 19.8179V9.96428C123.193 9.18928 123.751 8.63571 124.421 8.63571C125.09 8.63571 125.648 9.18928 125.648 9.96428V13.5071H131.004V9.96428C131.004 9.18928 131.562 8.74643 132.232 8.74643C132.901 8.74643 133.459 9.3 133.459 9.96428V19.9286C133.459 20.7036 132.901 21.2571 132.232 21.2571C131.562 21.2571 131.004 20.7036 131.004 19.9286V15.8321H125.648V19.9286C125.648 20.7036 125.09 21.2571 124.421 21.2571C123.639 21.1464 123.193 20.5929 123.193 19.8179Z" fill="#52B6D5"/>
<path d="M138.927 19.9286V11.1822H136.137C135.468 11.1822 135.021 10.7393 135.021 10.075C135.021 9.41072 135.468 8.96786 136.137 8.96786H144.395C145.064 8.96786 145.511 9.41072 145.511 10.075C145.511 10.7393 145.064 11.1822 144.395 11.1822H141.494V19.9286C141.494 20.5929 140.936 21.1464 140.266 21.1464C139.485 21.1464 138.927 20.5929 138.927 19.9286Z" fill="#52B6D5"/>
<path d="M156.781 9.96429V18.7107H157.116C157.897 18.7107 158.343 19.2643 158.343 19.9286V22.475C158.343 23.1393 157.785 23.6929 157.116 23.6929C156.446 23.6929 155.888 23.1393 155.888 22.475V20.925H148.189C147.408 20.925 146.961 20.3714 146.961 19.7071V9.96429C146.961 9.3 147.519 8.74643 148.189 8.74643C148.858 8.74643 149.416 9.3 149.416 9.96429V18.7107H154.326V9.96429C154.326 9.3 154.884 8.74643 155.554 8.74643C156.223 8.74643 156.781 9.18929 156.781 9.96429Z" fill="#52B6D5"/>
<defs>
<linearGradient id="paint0_linear_1_283" x1="22.793" y1="-2.88821" x2="21.3189" y2="60.5043" gradientUnits="userSpaceOnUse">
<stop offset="0.1919" stop-color="#58C0D7"/>
<stop offset="1" stop-color="#3F98CE"/>
</linearGradient>
<linearGradient id="paint1_linear_1_283" x1="23.3016" y1="0.795586" x2="22.3377" y2="42.2445" gradientUnits="userSpaceOnUse">
<stop offset="0.3868" stop-color="#58C0D7"/>
<stop offset="0.807" stop-color="#3AA3D1"/>
</linearGradient>
<linearGradient id="paint2_linear_1_283" x1="21.3635" y1="57.6293" x2="22.379" y2="13.9625" gradientUnits="userSpaceOnUse">
<stop offset="0.2356" stop-color="#58C0D7"/>
<stop offset="0.6072" stop-color="#3F98CE"/>
</linearGradient>
<linearGradient id="paint3_linear_1_283" x1="26.7252" y1="29.1099" x2="26.45" y2="40.9454" gradientUnits="userSpaceOnUse">
<stop offset="0.1919" stop-color="#58C0D7"/>
<stop offset="1" stop-color="#3F98CE"/>
</linearGradient>
<linearGradient id="paint4_linear_1_283" x1="59.6025" y1="6.81192" x2="58.3255" y2="60.8707" gradientUnits="userSpaceOnUse">
<stop offset="0.2356" stop-color="#58C0D7"/>
<stop offset="0.6072" stop-color="#3F98CE"/>
</linearGradient>
<linearGradient id="paint5_linear_1_283" x1="78.8335" y1="7.26628" x2="77.5566" y2="61.325" gradientUnits="userSpaceOnUse">
<stop offset="0.2356" stop-color="#58C0D7"/>
<stop offset="0.6072" stop-color="#3F98CE"/>
</linearGradient>
<linearGradient id="paint6_linear_1_283" x1="97.9962" y1="7.71888" x2="96.7192" y2="61.7777" gradientUnits="userSpaceOnUse">
<stop offset="0.2356" stop-color="#58C0D7"/>
<stop offset="0.6072" stop-color="#3F98CE"/>
</linearGradient>
</defs>
</svg>
